HIERARCHY
ROOT Hips
{
	OFFSET 0.000000 83.214638 0.000000
	CHANNELS 6 Xposition Yposition Zposition Xrotation Yrotation Zrotation
	JOINT Pelvis
	{
		OFFSET 0.000000 0.000000 0.000000
		CHANNELS 3 Xrotation Yrotation Zrotation
		JOINT LeftUpLeg
		{
			OFFSET 8.479700 -4.795502 -0.379100
			CHANNELS 3 Xrotation Yrotation Zrotation
			JOINT LeftLeg
			{
				OFFSET 0.024144 -32.555107 0.112900
				CHANNELS 3 Xrotation Yrotation Zrotation
				JOINT LeftFoot
				{
					OFFSET -0.024144 -32.638630 -3.012600
					CHANNELS 3 Xrotation Yrotation Zrotation
					JOINT LeftToeBase
					{
						OFFSET 0.970200 -13.225400 11.864200
						CHANNELS 3 Xrotation Yrotation Zrotation
						End Site
						{
							OFFSET 0.000000 12.319262 0.000000
						}
					}
					JOINT LFootTongue
					{
						OFFSET 1.142400 -1.059800 6.665200
						CHANNELS 3 Xrotation Yrotation Zrotation
						End Site
						{
							OFFSET 0.000000 12.319262 0.000000
						}
					}
				}
				JOINT LeftPantLeg
				{
					OFFSET 0.918482 -16.533964 -2.284700
					CHANNELS 3 Xrotation Yrotation Zrotation
					End Site
					{
						OFFSET 0.350399 24.744368 0.000000
					}
				}
			}
		}
		JOINT RightUpLeg
		{
			OFFSET -8.479700 -4.795502 -0.379100
			CHANNELS 3 Xrotation Yrotation Zrotation
			JOINT RightLeg
			{
				OFFSET -0.023144 -32.555092 0.112900
				CHANNELS 3 Xrotation Yrotation Zrotation
				JOINT RightFoot
				{
					OFFSET 0.023144 -32.638641 -3.012700
					CHANNELS 3 Xrotation Yrotation Zrotation
					JOINT RightToeBase
					{
						OFFSET -0.970200 -13.225400 11.864200
						CHANNELS 3 Xrotation Yrotation Zrotation
						End Site
						{
							OFFSET 0.000000 12.319244 0.000000
						}
					}
					JOINT RFootTongue
					{
						OFFSET -1.142200 -1.059800 6.665200
						CHANNELS 3 Xrotation Yrotation Zrotation
						End Site
						{
							OFFSET 0.000000 12.319243 0.000000
						}
					}
				}
				JOINT RightPantLeg
				{
					OFFSET -0.919482 -16.533978 -2.284800
					CHANNELS 3 Xrotation Yrotation Zrotation
					End Site
					{
						OFFSET -0.350400 24.744419 0.000000
					}
				}
			}
		}
	}
	JOINT Spine
	{
		OFFSET 0.000000 7.722000 1.166200
		CHANNELS 3 Xrotation Yrotation Zrotation
		JOINT Spine1
		{
			OFFSET 0.000000 12.024101 0.248800
			CHANNELS 3 Xrotation Yrotation Zrotation
			JOINT Spine2
			{
				OFFSET 0.000000 11.502998 -0.491200
				CHANNELS 3 Xrotation Yrotation Zrotation
				JOINT Neck
				{
					OFFSET 0.000000 18.430702 -3.123100
					CHANNELS 3 Xrotation Yrotation Zrotation
					JOINT Head
					{
						OFFSET 0.000000 9.051102 1.034000
						CHANNELS 3 Xrotation Yrotation Zrotation
						JOINT HairB
						{
							OFFSET 0.208400 24.786102 24.822300
							CHANNELS 3 Xrotation Yrotation Zrotation
							End Site
							{
								OFFSET 0.000000 32.263779 0.000000
							}
						}
						JOINT HairA
						{
							OFFSET -7.081100 24.428299 23.196600
							CHANNELS 3 Xrotation Yrotation Zrotation
							End Site
							{
								OFFSET 0.000000 32.263779 0.000000
							}
						}
						JOINT Hat
						{
							OFFSET 16.728800 15.048294 -15.439601
							CHANNELS 3 Xrotation Yrotation Zrotation
							End Site
							{
								OFFSET 0.000000 32.263779 0.000000
							}
						}
					}
				}
				JOINT LeftShoulder
				{
					OFFSET 6.197800 13.665199 -4.064700
					CHANNELS 3 Xrotation Yrotation Zrotation
					JOINT LeftArm
					{
						OFFSET 7.778100 -0.187103 -1.709300
						CHANNELS 3 Xrotation Yrotation Zrotation
						JOINT LeftForeArm
						{
							OFFSET 22.049376 0.000000 0.000000
							CHANNELS 3 Xrotation Yrotation Zrotation
							JOINT LeftHand
							{
								OFFSET 23.009392 0.000000 0.000000
								CHANNELS 3 Xrotation Yrotation Zrotation
								JOINT LeftHandThumb1
								{
									OFFSET 3.507191 -2.063065 3.133727
									CHANNELS 3 Xrotation Yrotation Zrotation
									JOINT LeftHandThumb2
									{
										OFFSET 3.101337 -1.790558 1.790558
										CHANNELS 3 Xrotation Yrotation Zrotation
										JOINT LeftHandThumb3
										{
											OFFSET 3.058640 -1.765907 1.765906
											CHANNELS 3 Xrotation Yrotation Zrotation
											End Site
											{
												OFFSET -0.415260 3.926476 -0.049563
											}
										}
									}
								}
								JOINT LeftHandIndex1
								{
									OFFSET 11.334419 -0.901459 3.706815
									CHANNELS 3 Xrotation Yrotation Zrotation
									JOINT LeftHandIndex2
									{
										OFFSET 3.283112 0.000000 0.000000
										CHANNELS 3 Xrotation Yrotation Zrotation
										JOINT LeftHandIndex3
										{
											OFFSET 3.323853 0.000000 0.000000
											CHANNELS 3 Xrotation Yrotation Zrotation
											End Site
											{
												OFFSET -1.135597 3.097809 0.402452
											}
										}
									}
								}
								JOINT LeftHandMiddle1
								{
									OFFSET 11.335861 0.000000 0.000000
									CHANNELS 3 Xrotation Yrotation Zrotation
									JOINT LeftHandMiddle2
									{
										OFFSET 3.410492 0.000000 0.000000
										CHANNELS 3 Xrotation Yrotation Zrotation
										JOINT LeftHandMiddle3
										{
											OFFSET 3.312172 0.000000 0.000000
											CHANNELS 3 Xrotation Yrotation Zrotation
											End Site
											{
												OFFSET -1.150200 3.080154 0.400270
											}
										}
									}
								}
								JOINT LeftHandRing1
								{
									OFFSET 11.514786 -0.013176 -3.003090
									CHANNELS 3 Xrotation Yrotation Zrotation
									JOINT LeftHandRing2
									{
										OFFSET 3.053307 0.000000 0.000000
										CHANNELS 3 Xrotation Yrotation Zrotation
										JOINT LeftHandRing3
										{
											OFFSET 3.295807 0.000000 0.000000
											CHANNELS 3 Xrotation Yrotation Zrotation
											End Site
											{
												OFFSET -1.281006 3.013344 0.375733
											}
										}
									}
								}
								JOINT LeftHandPinky1
								{
									OFFSET 10.518692 -0.960396 -5.730441
									CHANNELS 3 Xrotation Yrotation Zrotation
									JOINT LeftHandPinky2
									{
										OFFSET 2.861649 0.000000 0.000000
										CHANNELS 3 Xrotation Yrotation Zrotation
										JOINT LeftHandPinky3
										{
											OFFSET 2.863380 0.000000 0.000000
											CHANNELS 3 Xrotation Yrotation Zrotation
											End Site
											{
												OFFSET -0.843597 2.711159 0.369971
											}
										}
									}
								}
							}
							JOINT LSleeve
							{
								OFFSET 6.676277 -0.344902 -1.011730
								CHANNELS 3 Xrotation Yrotation Zrotation
								End Site
								{
									OFFSET 0.000000 14.885353 0.000000
								}
							}
						}
					}
				}
				JOINT RightShoulder
				{
					OFFSET -6.197800 13.665199 -4.064700
					CHANNELS 3 Xrotation Yrotation Zrotation
					JOINT RightArm
					{
						OFFSET -7.778100 -0.187103 -1.709300
						CHANNELS 3 Xrotation Yrotation Zrotation
						JOINT RightForeArm
						{
							OFFSET -22.049376 0.000000 0.000000
							CHANNELS 3 Xrotation Yrotation Zrotation
							JOINT RightHand
							{
								OFFSET -23.009392 0.000000 0.000000
								CHANNELS 3 Xrotation Yrotation Zrotation
								JOINT RightHandThumb1
								{
									OFFSET -3.507191 -2.063065 3.133727
									CHANNELS 3 Xrotation Yrotation Zrotation
									JOINT RightHandThumb2
									{
										OFFSET -3.101337 -1.790558 1.790558
										CHANNELS 3 Xrotation Yrotation Zrotation
										JOINT RightHandThumb3
										{
											OFFSET -3.058640 -1.765907 1.765906
											CHANNELS 3 Xrotation Yrotation Zrotation
											End Site
											{
												OFFSET 0.415260 3.926476 -0.049563
											}
										}
									}
								}
								JOINT RightHandIndex1
								{
									OFFSET -11.334419 -0.901459 3.706815
									CHANNELS 3 Xrotation Yrotation Zrotation
									JOINT RightHandIndex2
									{
										OFFSET -3.283112 0.000000 0.000000
										CHANNELS 3 Xrotation Yrotation Zrotation
										JOINT RightHandIndex3
										{
											OFFSET -3.323853 0.000000 0.000000
											CHANNELS 3 Xrotation Yrotation Zrotation
											End Site
											{
												OFFSET 1.135597 3.097809 0.402452
											}
										}
									}
								}
								JOINT RightHandMiddle1
								{
									OFFSET -11.335861 0.000000 0.000000
									CHANNELS 3 Xrotation Yrotation Zrotation
									JOINT RightHandMiddle2
									{
										OFFSET -3.410492 0.000000 0.000000
										CHANNELS 3 Xrotation Yrotation Zrotation
										JOINT RightHandMiddle3
										{
											OFFSET -3.312172 0.000000 0.000000
											CHANNELS 3 Xrotation Yrotation Zrotation
											End Site
											{
												OFFSET 1.150200 3.080154 0.400270
											}
										}
									}
								}
								JOINT RightHandRing1
								{
									OFFSET -11.514786 -0.013176 -3.003090
									CHANNELS 3 Xrotation Yrotation Zrotation
									JOINT RightHandRing2
									{
										OFFSET -3.053307 0.000000 0.000000
										CHANNELS 3 Xrotation Yrotation Zrotation
										JOINT RightHandRing3
										{
											OFFSET -3.295807 0.000000 0.000000
											CHANNELS 3 Xrotation Yrotation Zrotation
											End Site
											{
												OFFSET 1.281006 3.013344 0.375733
											}
										}
									}
								}
								JOINT RightHandPinky1
								{
									OFFSET -10.518692 -0.960396 -5.730441
									CHANNELS 3 Xrotation Yrotation Zrotation
									JOINT RightHandPinky2
									{
										OFFSET -2.861649 0.000000 0.000000
										CHANNELS 3 Xrotation Yrotation Zrotation
										JOINT RightHandPinky3
										{
											OFFSET -2.863380 0.000000 0.000000
											CHANNELS 3 Xrotation Yrotation Zrotation
											End Site
											{
												OFFSET 0.843597 2.711159 0.369971
											}
										}
									}
								}
							}
							JOINT RSleeve
							{
								OFFSET -6.676277 -0.344902 -1.011730
								CHANNELS 3 Xrotation Yrotation Zrotation
								End Site
								{
									OFFSET 0.000000 14.885353 0.000000
								}
							}
						}
					}
				}
				JOINT Backpack
				{
					OFFSET 0.000000 -2.471497 36.677502
					CHANNELS 3 Xrotation Yrotation Zrotation
					End Site
					{
						OFFSET 0.000000 20.427315 0.000000
					}
				}
				JOINT Hood
				{
					OFFSET 0.000000 18.754097 -10.431000
					CHANNELS 3 Xrotation Yrotation Zrotation
					JOINT Hood1
					{
						OFFSET 0.000000 -5.011002 -7.685901
						CHANNELS 3 Xrotation Yrotation Zrotation
						End Site
						{
							OFFSET 0.000000 9.175140 0.000000
						}
					}
				}
				JOINT LHoodieString
				{
					OFFSET 5.250500 16.397697 3.089900
					CHANNELS 3 Xrotation Yrotation Zrotation
					JOINT LHoodieString1
					{
						OFFSET 0.257700 -6.364304 3.694600
						CHANNELS 3 Xrotation Yrotation Zrotation
						JOINT LHoodieString2
						{
							OFFSET 0.000000 -9.643799 2.679100
							CHANNELS 3 Xrotation Yrotation Zrotation
							End Site
							{
								OFFSET 0.000000 10.009018 0.000000
							}
						}
					}
				}
				JOINT RHoodieString
				{
					OFFSET -5.250500 16.397697 3.089900
					CHANNELS 3 Xrotation Yrotation Zrotation
					JOINT RHoodieString1
					{
						OFFSET -0.257700 -6.364304 3.694600
						CHANNELS 3 Xrotation Yrotation Zrotation
						JOINT RHoodieString2
						{
							OFFSET 0.000000 -9.643799 2.679100
							CHANNELS 3 Xrotation Yrotation Zrotation
							End Site
							{
								OFFSET 0.000000 10.009018 0.000000
							}
						}
					}
				}
			}
			JOINT LBackpack_Strap
			{
				OFFSET 15.223200 -7.719803 -6.610900
				CHANNELS 3 Xrotation Yrotation Zrotation
				End Site
				{
					OFFSET 0.000000 16.040596 0.000000
				}
			}
			JOINT RBackpack_Strap
			{
				OFFSET -15.223000 -7.719803 -6.610900
				CHANNELS 3 Xrotation Yrotation Zrotation
				End Site
				{
					OFFSET 0.000000 16.040596 0.000000
				}
			}
		}
	}
	JOINT BoyFacialAnim_Joint
	{
		OFFSET 1.000000 -82.208099 -1.550900
		CHANNELS 3 Xrotation Yrotation Zrotation
		End Site
		{
			OFFSET 0.000000 30.012791 0.000000
		}
	}
}
MOTION
Frames: 4
Frame Time: 0.016667
-0.042470 81.789688 0.378487 -3.660829 3.318452 2.264736 0.000000 0.000000 0.000000 -2.334205 8.368326 3.285046 15.435804 3.904073 0.701658 -8.839841 0.450077 -3.890950 -0.000000 -0.000002 0.000000 -0.000000 -0.000002 0.000000 -0.000001 -0.000000 0.000000 -3.513636 -11.731649 -9.995095 17.552276 -4.975265 -1.290777 -9.429303 -1.913722 8.676552 -0.000000 0.000001 -0.000000 -0.000000 0.000001 -0.000000 -0.000001 -0.000000 0.000000 4.352449 -0.758965 -0.604561 1.013959 -0.170731 0.054478 1.013874 -0.177046 0.069540 0.942214 -0.544783 0.126542 -6.488561 -5.987211 -1.414549 0.000000 -0.000000 0.000000 0.000000 -0.000000 0.000000 0.000000 -0.000000 0.000000 0.674921 -2.078744 -16.856781 4.778423 -6.136923 -37.933867 0.000051 -66.118936 0.000076 -4.833208 -7.576973 -60.543050 -7.220029 -16.942344 15.004589 8.348831 0.689817 4.880207 0.000000 -0.000003 -0.000002 -0.978078 -1.241635 -15.183690 1.002380 3.278835 -33.989699 -0.000001 0.000001 0.000000 0.805759 5.211337 -29.108818 1.066661 3.372084 -35.098153 -0.000002 -0.000001 -0.000000 6.496576 12.626969 -37.570849 1.949511 4.363733 -48.129102 -0.000001 0.000001 -0.000005 9.161917 25.680994 -47.169867 0.954727 3.207183 -33.147820 -0.000001 0.000002 0.000002 0.000000 -0.000001 0.000001 0.088521 8.205039 21.087103 -3.899878 6.709552 55.252597 0.000004 9.850082 -0.000026 33.602413 9.190956 0.661891 9.076638 11.156491 -7.011585 22.190735 -26.308861 10.012004 -0.000000 -0.000001 0.000001 3.041027 7.562625 51.714627 1.573264 -3.491497 48.501894 -0.000000 -0.000001 0.000002 -3.185441 -4.004865 67.076843 1.304822 -3.234646 43.928297 -0.000000 0.000000 -0.000000 -4.626543 -1.781867 57.138296 2.278836 -4.005249 59.262765 -0.000002 -0.000001 0.000004 -7.034699 -9.338171 44.934199 1.908682 -3.761129 53.801625 -0.000000 -0.000003 -0.000002 0.000000 -0.000001 -0.000001 0.000000 0.000000 -0.000000 0.000000 0.000000 -0.000000 0.000000 0.000000 -0.000000 0.000000 0.000000 -0.000000 0.000000 0.000000 -0.000000 0.000000 -0.000000 -0.000000 0.000000 0.000000 -0.000000 0.000000 0.000000 -0.000000 0.000000 -0.000000 -0.000000 0.000000 0.000000 0.000000 0.000000 0.000000 0.000000 0.000000 0.000000 0.000000 
-0.037691 81.790497 0.393883 -3.661140 3.401766 2.290642 -0.000000 -0.000000 -0.000000 -2.339517 8.385025 3.274435 15.444875 3.844872 0.666564 -8.844567 0.451158 -3.819245 0.000000 0.000001 0.000000 0.000000 0.000001 0.000000 0.000001 0.000000 0.000000 -3.476823 -11.731417 -10.013471 17.539403 -5.059751 -1.290801 -9.443949 -1.921302 8.699730 0.000000 -0.000000 -0.000000 0.000000 -0.000000 -0.000000 0.000001 -0.000001 -0.000001 4.297200 -0.724088 -0.619605 1.003490 -0.162740 0.054478 1.003401 -0.169834 0.069539 0.967347 -0.361658 0.089158 -6.296965 -5.810301 -1.351242 -0.000000 -0.000000 -0.000000 -0.000000 -0.000000 -0.000000 -0.000000 -0.000000 -0.000000 0.668923 -2.098531 -16.857006 4.777333 -6.116302 -37.949368 0.000052 -66.118950 0.000072 -4.804810 -7.604663 -60.565371 -7.220031 -16.942346 15.004585 8.348861 0.690221 4.880262 0.000001 0.000000 0.000001 -0.984010 -1.230244 -15.277772 0.998180 3.272624 -33.916295 -0.000001 0.000000 -0.000000 0.808637 5.216542 -29.166936 1.066665 3.372074 -35.098156 -0.000000 -0.000001 -0.000000 6.505286 12.626493 -37.619582 1.947862 4.362276 -48.107386 -0.000000 0.000002 -0.000002 9.177793 25.678950 -47.209912 0.954747 3.207187 -33.147813 -0.000005 0.000002 -0.000005 0.000002 0.000002 0.000000 0.189313 8.114529 20.696776 -3.948093 6.617983 55.456966 -0.000002 9.661275 0.000020 33.524730 9.281793 1.219413 8.533735 11.109502 -7.539699 22.252751 -26.276113 10.224551 -0.000000 0.000001 0.000001 3.035196 7.424106 51.008908 1.532225 -3.454818 47.824616 0.000000 -0.000002 0.000005 -3.314720 -3.863945 66.407095 1.290207 -3.219416 43.668603 -0.000001 -0.000002 0.000001 -4.917045 -1.736462 57.961702 2.213082 -3.965499 58.316927 -0.000000 -0.000003 0.000002 -7.357668 -8.917702 46.621058 1.809455 -3.686606 52.273617 -0.000000 0.000001 0.000000 0.000001 0.000002 -0.000001 0.000000 0.000000 0.000000 0.000000 0.000000 0.000000 0.000000 0.000000 0.000000 0.000000 0.000000 0.000000 0.000000 0.000000 0.000000 0.000000 0.000000 -0.000000 0.000000 0.000000 0.000000 0.000000 0.000000 0.000000 0.000000 0.000000 -0.000000 0.000000 0.000000 -0.000000 0.000000 0.000000 -0.000000 -0.000000 -0.000000 -0.000000 
-0.032849 81.791702 0.410077 -3.666626 3.495946 2.320488 -0.000000 -0.000000 -0.000000 -2.323337 8.394239 3.254831 15.419698 3.781079 0.640957 -8.831895 0.450607 -3.777668 0.000000 -0.000002 -0.000000 0.000000 -0.000002 -0.000000 0.000001 -0.000002 0.000000 -3.429785 -11.731264 -10.033456 17.523643 -5.151749 -1.290803 -9.459499 -1.933481 8.724704 0.000000 0.000001 0.000000 0.000000 0.000001 0.000000 -0.000000 0.000000 -0.000000 4.243274 -0.692074 -0.631584 0.993090 -0.154234 0.054478 0.993004 -0.161422 0.069539 0.993620 -0.171604 0.051404 -6.089672 -5.592143 -1.285595 -0.000000 -0.000000 -0.000000 -0.000000 -0.000000 -0.000000 -0.000000 -0.000000 -0.000000 0.669283 -2.097340 -16.856987 4.776129 -6.115301 -37.967748 0.000036 -66.105262 0.000041 -4.795309 -7.620683 -60.578621 -7.220032 -16.942344 15.004583 8.343776 0.679839 4.884446 -0.000000 -0.000003 0.000003 -0.987262 -1.223895 -15.330076 0.996341 3.269886 -33.884241 0.000000 0.000002 -0.000001 0.810381 5.219616 -29.201576 1.066663 3.372087 -35.098156 0.000003 0.000002 -0.000003 6.508838 12.626306 -37.639410 1.946216 4.360797 -48.085648 -0.000003 0.000003 -0.000002 9.181784 25.678448 -47.219997 0.954733 3.207189 -33.147803 -0.000000 0.000000 -0.000000 0.000000 -0.000002 0.000001 0.288256 8.054238 20.313280 -4.008388 6.518861 55.627157 0.000002 9.463821 -0.000013 33.489558 9.471055 1.838429 7.972958 11.044961 -8.116743 22.324045 -26.238131 10.469544 -0.000002 0.000001 0.000001 3.024048 7.283610 50.293579 1.491103 -3.417183 47.138469 -0.000001 0.000002 0.000002 -3.452769 -3.715143 65.737060 1.275073 -3.203526 43.398571 -0.000000 -0.000004 0.000001 -5.217653 -1.713538 58.887077 2.144023 -3.922168 57.312971 -0.000002 -0.000003 -0.000000 -7.711636 -8.515092 48.478504 1.703804 -3.602543 50.611545 -0.000001 0.000001 0.000000 -0.000001 -0.000002 0.000000 0.000000 -0.000000 -0.000000 0.000000 -0.000000 -0.000000 0.000000 -0.000000 -0.000000 0.000000 -0.000000 -0.000000 0.000000 -0.000000 -0.000000 -0.000000 -0.000000 -0.000000 0.000000 -0.000000 -0.000000 0.000000 -0.000000 -0.000000 -0.000000 -0.000000 -0.000000 -0.000000 -0.000000 0.000000 -0.000000 -0.000000 0.000000 -0.000000 -0.000000 -0.000000 
-0.024618 81.793533 0.426911 -3.673619 3.600226 2.359724 0.000001 0.000000 0.000000 -2.294736 8.397058 3.217637 15.375700 3.718686 0.622374 -8.810682 0.449585 -3.737988 0.000000 -0.000000 -0.000000 0.000000 -0.000000 0.000000 -0.000001 -0.000000 -0.000000 -3.380095 -11.730953 -10.064663 17.508019 -5.251285 -1.290809 -9.475601 -1.949720 8.754873 -0.000000 -0.000000 -0.000000 -0.000000 -0.000000 -0.000000 0.000000 0.000001 -0.000000 4.190110 -0.661108 -0.640721 0.983113 -0.144932 0.054478 0.983032 -0.152244 0.066660 1.021000 0.026481 0.013595 -5.859409 -5.331689 -1.206530 -0.000000 0.000000 -0.000000 -0.000000 0.000000 -0.000000 -0.000000 0.000000 -0.000000 0.672029 -2.087341 -16.865547 4.773023 -6.120772 -37.983454 0.000024 -66.086144 0.000042 -4.796957 -7.633363 -60.590492 -7.220026 -16.942344 15.004589 8.332882 0.653604 4.892515 0.000000 0.000002 -0.000000 -0.987888 -1.222734 -15.339787 0.996445 3.270078 -33.886389 0.000001 -0.000002 -0.000000 0.810719 5.220248 -29.208659 1.066677 3.372084 -35.098153 0.000001 -0.000003 -0.000000 6.508716 12.626295 -37.638823 1.945101 4.359794 -48.070974 -0.000002 -0.000001 -0.000000 9.177562 25.678998 -47.209359 0.954758 3.207184 -33.147813 -0.000001 -0.000001 -0.000002 0.000001 0.000002 0.000000 0.391141 7.989680 19.911496 -4.059861 6.438545 55.791594 -0.000001 9.308320 -0.000019 33.459741 9.705514 2.456259 7.393734 10.964027 -8.735718 22.404779 -26.196666 10.745445 0.000001 0.000001 0.000000 3.009648 7.138838 49.568694 1.449922 -3.378574 46.443452 0.000002 0.000001 0.000005 -3.597540 -3.558808 65.066131 1.259529 -3.187026 43.119609 0.000003 0.000003 -0.000003 -5.523626 -1.714927 59.897897 2.072293 -3.875285 56.257857 0.000003 0.000001 -0.000001 -8.097090 -8.141701 50.479910 1.593500 -3.509259 48.833267 0.000000 0.000004 0.000001 -0.000000 -0.000001 0.000000 0.000000 -0.000000 0.000000 0.000000 -0.000000 0.000000 0.000000 -0.000000 0.000000 0.000000 -0.000000 0.000000 0.000000 -0.000000 -0.000000 0.000000 -0.000000 -0.000000 0.000000 -0.000000 0.000000 0.000000 -0.000000 -0.000000 0.000000 -0.000000 -0.000000 0.000000 -0.000000 -0.000000 0.000000 -0.000000 -0.000000 0.000001 0.000000 0.000000 
